<svg width="100" height="100" viewBox="0 0 100 100" fill="none" xmlns="http://www.w3.org/2000/svg">
<path d="M57.732 89.4699H23.4363C14.6662 89.4699 7.53125 82.335 7.53125 73.5648V42.7773H14.4457V73.5646C14.4457 78.5221 18.4789 82.5555 23.4363 82.5555H57.7318V89.4699H57.732Z" fill="#6D8DA7"/>
<path d="M70.6455 68.6072H48.4392C42.1871 68.6072 37.1003 63.5207 37.1003 57.2684V42.7773H44.0148V57.2684C44.0148 59.708 45.9996 61.6928 48.4392 61.6928H70.6455C73.0851 61.6928 75.0699 59.708 75.0699 57.2684V44.1434H81.9843V57.2684C81.9843 63.5205 76.8978 68.6072 70.6455 68.6072Z" fill="#6D8DA7"/>
<path d="M61.9731 79.4385H53.8452C52.5754 79.4385 51.5461 80.4678 51.5461 81.7375V90.2873C51.5461 91.557 52.5754 92.5863 53.8452 92.5863H61.9731V79.4385Z" fill="#BDC0C3"/>
<path d="M46.5248 51.5461H5.02129C2.24805 51.5461 0 49.298 0 46.5248V5.02129C0 2.24805 2.24805 0 5.02129 0H46.5246C49.2979 0 51.5461 2.24805 51.5461 5.02129V46.5246C51.5463 49.298 49.298 51.5461 46.5248 51.5461Z" fill="#6EA9E0"/>
<path d="M78.5273 51.5469C90.3864 51.5469 100 41.9332 100 30.0742C100 18.2152 90.3864 8.60156 78.5273 8.60156C66.6683 8.60156 57.0547 18.2152 57.0547 30.0742C57.0547 41.9332 66.6683 51.5469 78.5273 51.5469Z" fill="#BDC0C3"/>
<path d="M78.5273 46.4043C87.5462 46.4043 94.8574 39.0931 94.8574 30.0742C94.8574 21.0554 87.5462 13.7441 78.5273 13.7441C69.5085 13.7441 62.1973 21.0554 62.1973 30.0742C62.1973 39.0931 69.5085 46.4043 78.5273 46.4043Z" fill="white"/>
<path d="M86.7752 39.786C86.4004 39.786 86.0254 39.6431 85.7394 39.3571C85.1674 38.7849 85.1674 37.8575 85.7394 37.2854C87.666 35.3591 88.7269 32.7978 88.7269 30.0731C88.7269 24.4491 84.1513 19.8735 78.5271 19.8735C72.9031 19.8735 68.3275 24.4491 68.3275 30.0731C68.3275 32.7976 69.3885 35.3589 71.3148 37.2854C71.8869 37.8577 71.8869 38.7851 71.3148 39.3571C70.7427 39.929 69.8152 39.929 69.2433 39.3571C66.7635 36.8772 65.3978 33.5802 65.3978 30.0731C65.3978 22.8337 71.2877 16.9438 78.5271 16.9438C85.7668 16.9438 91.6566 22.8335 91.6566 30.0731C91.6566 33.5802 90.2908 36.8772 87.8111 39.3571C87.525 39.6433 87.15 39.786 86.7752 39.786Z" fill="#5C9DD8"/>
<path d="M71.6121 34.0369C71.0125 34.0369 70.4498 33.666 70.2344 33.0694C69.9596 32.3084 70.3535 31.469 71.1142 31.194L78.0295 28.6959C78.7906 28.4211 79.6301 28.8149 79.9049 29.576C80.1797 30.3368 79.7857 31.1764 79.025 31.4514L72.1098 33.9494C71.9453 34.0086 71.7773 34.0369 71.6121 34.0369Z" fill="#F16B81"/>
<path opacity="0.1" d="M57.0543 30.0736C57.0543 41.9328 66.668 51.5465 78.5272 51.5465C83.8162 51.5465 88.6578 49.633 92.4 46.4621C77.6319 47.0678 62.276 25.6754 73.6473 9.1582C64.1393 11.3678 57.0543 19.8932 57.0543 30.0736Z" fill="black"/>
<path opacity="0.15" d="M39.6586 0H32.4827C35.0319 0 37.0983 2.0666 37.0983 4.61562V46.9305C37.0983 49.4797 35.0317 51.5461 32.4827 51.5461H39.6586C42.2079 51.5461 44.2743 49.4795 44.2743 46.9305V4.61562C44.2745 2.0666 42.2079 0 39.6586 0Z" fill="black"/>
<path d="M32.4828 0H5.02129C2.24824 0 0 2.24805 0 5.02129V46.5246C0 49.2979 2.24805 51.5461 5.02148 51.5461H32.4828C35.032 51.5461 37.0984 49.4795 37.0984 46.9305V4.61562C37.0984 2.0666 35.032 0 32.4828 0Z" fill="#80B7E9"/>
<path d="M32.4828 0H28.0115V51.5461H32.4828C35.032 51.5461 37.0984 49.4795 37.0984 46.9305V4.61562C37.0984 2.0666 35.0318 0 32.4828 0Z" fill="#94C3E9"/>
<path d="M78.0254 99.998C88.4692 99.998 96.9355 93.7362 96.9355 86.0117C96.9355 78.2873 88.4692 72.0254 78.0254 72.0254C67.5816 72.0254 59.1152 78.2873 59.1152 86.0117C59.1152 93.7362 67.5816 99.998 78.0254 99.998Z" fill="#9CCBF7"/>
<path opacity="0.15" d="M91.7064 95.6685C68.0576 97.6577 63.9477 81.0284 68.9162 73.7524C63.0736 76.1323 59.1143 80.7302 59.1143 86.0122C59.1143 93.7372 67.5809 99.9995 78.025 99.9995C83.4064 99.9997 88.2627 98.337 91.7064 95.6685Z" fill="black"/>
<path opacity="0.15" d="M7.53125 51.5469H14.4457V55.6934H7.53125V51.5469Z" fill="black"/>
<path opacity="0.15" d="M37.0996 51.5469H44.0141V55.6934H37.0996V51.5469Z" fill="black"/>
<path d="M15.5338 16.0364C17.3664 17.453 20.9186 20.7063 21.3508 24.9151C21.7711 29.0075 18.6227 32.6698 14.5088 32.7047C10.6451 32.7375 7.50293 29.6155 7.50293 25.7594C7.50293 21.1399 11.4156 17.541 13.3676 16.033C14.0055 15.5403 14.8961 15.5434 15.5338 16.0364Z" fill="#F16B81"/>
<path opacity="0.15" d="M9.7625 0H5.02148C2.24824 0 0 2.24805 0 5.02129V46.5246C0 49.2979 2.24805 51.5461 5.02148 51.5461H31.909C8.60156 44.4098 7.40527 11.257 9.7625 0Z" fill="black"/>
</svg>
