<svg width="375" height="345" viewBox="0 0 375 345" fill="none" xmlns="http://www.w3.org/2000/svg">
<mask id="mask0_66_97" style="mask-type:alpha" maskUnits="userSpaceOnUse" x="0" y="0" width="375" height="430">
<path d="M0 0H375V430H0V0Z" fill="white"/>
</mask>
<g mask="url(#mask0_66_97)">
<path fill-rule="evenodd" clip-rule="evenodd" d="M-367.73 95.83C-309.949 27.435 -223.548 -16 -127 -16C-33.839 -16 49.876 24.442 107.547 88.728C126.881 106.4 135.572 131 162.29 131C203.982 131 208.683 86 262.009 97.85C315.333 109.697 282.75 211 326 211C369.25 211 358 154.204 402.945 154.204C432.908 154.204 454.926 191.802 469 267L433 280.426C354.667 363.689 281.833 405.32 214.5 405.32C45.338 405.32 -15.082 263 -79.81 263C-211.11 263 -370.836 533.668 -418.142 419.471L-722 447L-745 268C-730.926 192.802 -708.908 155.204 -678.945 155.204C-634 155.204 -645.25 212 -602 212C-558.75 212 -574.842 110.698 -521.517 98.85C-468.19 87 -458.16 132 -416.469 132C-392.841 132 -382.604 112.76 -367.947 96.087L-367.731 95.83H-367.73Z" fill="#4199FF" fill-opacity="0.05"/>
<path fill-rule="evenodd" clip-rule="evenodd" d="M-127 37C-65.7471 37 -9.40308 58.02 35.2099 93.24C45.8629 99.43 56.9399 104 72.9999 104C116.413 104 114.096 74 159 81C203.904 88 203.904 172 256 172C308.096 172 298.096 137 342 146C385.904 155 526.544 169.333 447.21 330C346.1 356.56 274.365 370.144 232 370.754C128.33 372.245 44.299 347.625 -6.10352e-05 347.625C-108.737 347.625 -329.002 494.759 -368.644 400.429L-729 497C-808.333 336.333 -824 256 -776 256C-704 256 -667.904 158 -624 149C-580.096 140 -581.096 184 -529 184C-476.904 184 -465 90 -424 81C-383 72 -373.413 107 -330 107C-308.99 107 -297.914 99.18 -285.21 90.144C-241.25 56.792 -186.437 37 -127 37Z" fill="#4199FF" fill-opacity="0.1"/>
<path opacity="0.3" d="M319 101C321.761 101 324 98.7614 324 96C324 93.2386 321.761 91 319 91C316.239 91 314 93.2386 314 96C314 98.7614 316.239 101 319 101Z" stroke="#4199FF" stroke-width="2"/>
<path opacity="0.5" d="M94.5 7C95.8807 7 97 5.88071 97 4.5C97 3.11929 95.8807 2 94.5 2C93.1193 2 92 3.11929 92 4.5C92 5.88071 93.1193 7 94.5 7Z" fill="#4199FF"/>
<path opacity="0.8" fill-rule="evenodd" clip-rule="evenodd" d="M156.55 27.4998C157.931 27.9696 159.186 28.7504 160.218 29.7821C161.249 30.8137 162.03 32.0686 162.5 33.4498C162.97 32.0686 163.751 30.8137 164.782 29.7821C165.814 28.7504 167.069 27.9696 168.45 27.4998C167.069 27.03 165.814 26.2492 164.782 25.2175C163.751 24.1859 162.97 22.9311 162.5 21.5498C162.03 22.9311 161.249 24.1859 160.218 25.2175C159.186 26.2492 157.931 27.03 156.55 27.4998Z" fill="white" stroke="#C2DEFF" stroke-width="2"/>
<path opacity="0.2" d="M63 83C65.2091 83 67 81.2091 67 79C67 76.7909 65.2091 75 63 75C60.7909 75 59 76.7909 59 79C59 81.2091 60.7909 83 63 83Z" fill="#4199FF"/>
<path opacity="0.2" d="M139 223.085H145.616L147.886 225.89L149.562 218L151.791 223.085H159.785" stroke="#4199FF" stroke-width="2" stroke-linecap="round" stroke-linejoin="round"/>
<path opacity="0.3" d="M281 12.5826H287.616L288.886 3.99965L291.562 16.8896L293.791 12.5826H299.785" stroke="#4199FF" stroke-width="2" stroke-linecap="round" stroke-linejoin="round"/>
</g>
<path d="M267 41H207C199.268 41 193 47.268 193 55V195C193 202.732 199.268 209 207 209H267C274.732 209 281 202.732 281 195V55C281 47.268 274.732 41 267 41Z" fill="white"/>
<path opacity="0.3" d="M267.5 38.5H206.5C197.663 38.5 190.5 45.6634 190.5 54.5V195.5C190.5 204.337 197.663 211.5 206.5 211.5H267.5C276.337 211.5 283.5 204.337 283.5 195.5V54.5C283.5 45.6634 276.337 38.5 267.5 38.5Z" stroke="#4199FF"/>
<mask id="mask1_66_97" style="mask-type:alpha" maskUnits="userSpaceOnUse" x="192" y="40" width="90" height="170">
<path d="M268 40H206C198.268 40 192 46.268 192 54V196C192 203.732 198.268 210 206 210H268C275.732 210 282 203.732 282 196V54C282 46.268 275.732 40 268 40Z" fill="white"/>
</mask>
<g mask="url(#mask1_66_97)">
<path fill-rule="evenodd" clip-rule="evenodd" d="M-363.73 95.83C-305.949 27.435 -219.548 -16 -123 -16C-29.839 -16 53.876 24.442 111.547 88.728C130.881 106.4 139.572 131 166.29 131C207.982 131 212.683 86 266.009 97.85C319.333 109.697 286.75 211 330 211C373.25 211 362 154.204 406.945 154.204C436.908 154.204 458.926 191.802 473 267L437 270.426C358.667 353.689 285.833 395.32 218.5 395.32C49.338 395.32 -11.082 253 -75.81 253C-207.11 253 -366.836 533.668 -414.142 419.471L-718 447L-741 268C-726.926 192.802 -704.908 155.204 -674.945 155.204C-630 155.204 -641.25 212 -598 212C-554.75 212 -570.842 110.698 -517.517 98.85C-464.19 87 -454.16 132 -412.469 132C-388.841 132 -378.604 112.76 -363.947 96.087L-363.731 95.83H-363.73Z" fill="#4199FF" fill-opacity="0.05"/>
<path fill-rule="evenodd" clip-rule="evenodd" d="M-123 37C-61.7471 37 -5.40308 58.02 39.2099 93.24C49.8629 99.43 60.9399 104 76.9999 104C120.413 104 118.096 74 163 81C207.904 88 207.904 172 260 172C312.096 172 302.096 137 346 146C389.904 155 530.544 159.333 451.21 320C350.1 346.56 278.365 360.144 236 360.754C132.33 362.245 48.299 337.625 3.99994 337.625C-104.737 337.625 -325.002 494.759 -364.644 400.429L-725 497C-804.333 336.333 -820 256 -772 256C-700 256 -663.904 158 -620 149C-576.096 140 -577.096 184 -525 184C-472.904 184 -461 90 -420 81C-379 72 -369.413 107 -326 107C-304.99 107 -293.914 99.18 -281.21 90.144C-237.25 56.792 -182.437 37 -123 37Z" fill="#4199FF" fill-opacity="0.1"/>
<path d="M266.5 41.5H207.5C199.768 41.5 193.5 47.768 193.5 55.5V194.5C193.5 202.232 199.768 208.5 207.5 208.5H266.5C274.232 208.5 280.5 202.232 280.5 194.5V55.5C280.5 47.768 274.232 41.5 266.5 41.5Z" stroke="#4199FF" stroke-opacity="0.6" stroke-width="3"/>
<path fill-rule="evenodd" clip-rule="evenodd" d="M214.133 40H259.867C260.009 40 260.149 40.0302 260.278 40.0885C260.407 40.1469 260.523 40.232 260.616 40.3383C260.71 40.4446 260.78 40.5696 260.822 40.7051C260.864 40.8405 260.877 40.9833 260.859 41.124L260.438 44.496C260.317 45.4636 259.847 46.3537 259.116 46.999C258.385 47.6442 257.443 48.0002 256.468 48H217.532C216.557 48 215.616 47.6439 214.885 46.9986C214.154 46.3534 213.684 45.4634 213.563 44.496L213.142 41.124C213.124 40.9834 213.137 40.8407 213.179 40.7053C213.22 40.5699 213.29 40.4449 213.384 40.3387C213.478 40.2324 213.593 40.1472 213.722 40.0889C213.851 40.0305 213.991 40.0002 214.133 40Z" fill="#85BEFF"/>
<path d="M250.5 200H223.5C222.672 200 222 200.672 222 201.5C222 202.328 222.672 203 223.5 203H250.5C251.328 203 252 202.328 252 201.5C252 200.672 251.328 200 250.5 200Z" fill="#85BDFF"/>
</g>
<path opacity="0.5" d="M135.141 125V132.567C136.475 146.856 144.284 154 158.571 154C172.857 154 180.667 146.856 182 132.567V109.89M105.141 125V141C105.141 163.091 123.05 181 145.141 181H171L105.141 125Z" stroke="#4199FF" stroke-width="4"/>
<path d="M173 172H162.866C161.283 172 160 173.253 160 174.798V185.202C160 186.747 161.283 188 162.866 188H173V172Z" fill="white"/>
<path d="M182 125C193.046 125 202 116.046 202 105C202 93.9543 193.046 85 182 85C170.954 85 162 93.9543 162 105C162 116.046 170.954 125 182 125Z" fill="white" stroke="#85BEFF" stroke-width="4"/>
<path opacity="0.3" d="M182 120C190.284 120 197 113.284 197 105C197 96.7157 190.284 90 182 90C173.716 90 167 96.7157 167 105C167 113.284 173.716 120 182 120Z" stroke="#4199FF" stroke-width="2"/>
<path d="M174.786 111C174.056 111 173.369 110.522 173.106 109.752C172.772 108.772 173.252 107.689 174.179 107.334L182.608 104.113C183.535 103.759 184.558 104.266 184.893 105.248C185.228 106.228 184.748 107.311 183.821 107.666L175.392 110.887C175.192 110.963 174.987 111 174.786 111Z" fill="#F16B81"/>
<path d="M137 53H101C95.4772 53 91 57.4772 91 63V117C91 122.523 95.4772 127 101 127H137C142.523 127 147 122.523 147 117V63C147 57.4772 142.523 53 137 53Z" fill="#4199FF"/>
<path opacity="0.4" d="M123 53H101C95.4772 53 91 57.4772 91 63V117C91 122.523 95.4772 127 101 127H123C128.523 127 133 122.523 133 117V63C133 57.4772 128.523 53 123 53Z" fill="white"/>
<path d="M191.5 197C203.926 197 214 189.389 214 180C214 170.611 203.926 163 191.5 163C179.074 163 169 170.611 169 180C169 189.389 179.074 197 191.5 197Z" fill="#4199FF"/>
<path fill-rule="evenodd" clip-rule="evenodd" d="M242.548 120.01C240.592 120.004 238.71 120.758 237.299 122.113C237.192 122.216 237.09 122.324 236.993 122.436C236.993 122.436 236.798 122.22 236.687 122.113C233.788 119.299 229.084 119.295 226.181 122.103C225.492 122.76 224.944 123.549 224.569 124.424C224.194 125.298 224 126.24 224 127.191C223.999 128.143 224.191 129.084 224.564 129.96C224.937 130.835 225.484 131.625 226.171 132.283L235.685 141.473C236.033 141.81 236.505 142 236.998 142C237.49 142 237.962 141.81 238.31 141.473L247.824 132.283C249.952 130.223 250.586 127.123 249.429 124.433C248.273 121.744 245.555 119.997 242.548 120.01Z" fill="#F16B81"/>
<path opacity="0.1" d="M237.51 141.93C237.193 142.02 236.857 142.025 236.537 141.945C236.217 141.865 235.923 141.702 235.686 141.473C229.416 135.418 226.246 132.354 226.171 132.283C225.484 131.625 224.937 130.834 224.564 129.959C224.191 129.084 223.999 128.142 224 127.191C224 126.239 224.194 125.298 224.569 124.423C224.944 123.549 225.492 122.759 226.181 122.103C227.13 121.186 228.305 120.537 229.586 120.223C228.674 121.535 228.17 123.087 228.137 124.685C228.105 126.283 228.546 127.855 229.404 129.203L237.394 141.766C237.43 141.823 237.469 141.878 237.51 141.93Z" fill="black"/>
</svg>
