<svg width="375" height="260" viewBox="0 0 375 260" fill="none" xmlns="http://www.w3.org/2000/svg">
<g clip-path="url(#clip0_66_448)">
<mask id="mask0_66_448" style="mask-type:alpha" maskUnits="userSpaceOnUse" x="0" y="0" width="375" height="260">
<path d="M0 0H375V260H0V0Z" fill="white"/>
</mask>
<g mask="url(#mask0_66_448)">
<path d="M188 233C238.81 233 280 191.81 280 141C280 90.1898 238.81 49 188 49C137.19 49 96 90.1898 96 141C96 191.81 137.19 233 188 233Z" fill="#8EC1FF"/>
<path d="M188 228C236.049 228 275 189.049 275 141C275 92.9512 236.049 54 188 54C139.951 54 101 92.9512 101 141C101 189.049 139.951 228 188 228Z" fill="#D5E8FF" stroke="white" stroke-width="4"/>
<path d="M188 202C221.689 202 249 174.689 249 141C249 107.311 221.689 80 188 80C154.311 80 127 107.311 127 141C127 174.689 154.311 202 188 202Z" fill="white" stroke="#4199FF" stroke-opacity="0.1" stroke-width="4"/>
<path opacity="0.1" d="M188 171C204.569 171 218 157.569 218 141C218 124.431 204.569 111 188 111C171.431 111 158 124.431 158 141C158 157.569 171.431 171 188 171Z" fill="#4199FF"/>
<path d="M227.8 141C227.8 162.9 210 180.8 188 180.8C166.1 180.8 148.2 163 148.2 141C148.2 119.1 166 101.2 188 101.2C189.2 101.2 190.1 102.2 190.1 103.3C190.1 104.4 189.1 105.4 188 105.4C168.4 105.4 152.5 121.3 152.5 140.9C152.5 160.5 168.4 176.5 188 176.5C207.6 176.5 223.5 160.6 223.5 141C223.5 139.8 224.5 138.9 225.6 138.9C226.8 138.9 227.8 139.8 227.8 141ZM178.6 140.7C177.8 139.9 176.4 139.9 175.6 140.7C174.8 141.5 174.8 142.9 175.6 143.7L182.1 150.2C182.5 150.6 183.1 150.8 183.6 150.8C184.1 150.8 184.7 150.6 185.1 150.2L200.4 134.9C201.2 134.1 201.2 132.7 200.4 131.9C199.6 131.1 198.2 131.1 197.4 131.9L183.6 145.6L178.6 140.7ZM201.6 108.2C201.9 108.3 202.1 108.4 202.4 108.4C203.2 108.4 204 107.9 204.4 107.1C204.8 106 204.3 104.8 203.2 104.3C202.1 103.9 200.9 104.4 200.4 105.4C200 106.5 200.5 107.7 201.6 108.2ZM224.5 131.6C223.3 131.8 222.6 132.9 222.8 134.1C223 135.1 223.9 135.8 224.9 135.8H225.3C226.5 135.6 227.2 134.5 227 133.3C226.8 132.1 225.7 131.3 224.5 131.6ZM222 124.6C220.9 125 220.4 126.3 220.8 127.4C221.1 128.2 221.9 128.7 222.8 128.7C223.1 128.7 223.3 128.6 223.6 128.5C224.7 128.1 225.2 126.8 224.7 125.7C224.3 124.7 223.1 124.2 222 124.6ZM214.6 116.5C215.1 116.5 215.7 116.3 216.1 115.9C216.9 115.1 216.9 113.7 216.1 112.9C215.3 112.1 213.9 112.1 213.1 112.9C212.3 113.7 212.3 115.1 213.1 115.9C213.5 116.3 214.1 116.5 214.6 116.5ZM218.1 118.3C217.1 119 216.9 120.3 217.5 121.2C217.9 121.8 218.6 122.1 219.3 122.1C219.7 122.1 220.1 122 220.5 121.7C221.5 121 221.7 119.7 221.1 118.8C220.4 117.9 219.1 117.7 218.1 118.3ZM195.8 102C194.6 101.8 193.5 102.5 193.3 103.7C193.1 104.8 193.8 106 195 106.2H195.4C196.4 106.2 197.3 105.5 197.5 104.5C197.7 103.3 196.9 102.2 195.8 102ZM208.9 111.8C209.6 111.8 210.3 111.5 210.7 110.9C211.4 109.9 211.1 108.6 210.1 108C209.1 107.3 207.8 107.6 207.2 108.6C206.5 109.6 206.8 110.9 207.8 111.5C208.1 111.7 208.5 111.8 208.9 111.8Z" fill="#4199FF"/>
<path opacity="0.4" d="M326 105C328.761 105 331 102.761 331 100C331 97.2386 328.761 95 326 95C323.239 95 321 97.2386 321 100C321 102.761 323.239 105 326 105Z" stroke="#4199FF" stroke-width="2"/>
<path d="M300 147C301.657 147 303 145.657 303 144C303 142.343 301.657 141 300 141C298.343 141 297 142.343 297 144C297 145.657 298.343 147 300 147Z" fill="#4199FF"/>
<path opacity="0.4" fill-rule="evenodd" clip-rule="evenodd" d="M54.5488 71.4998C55.9303 71.9695 57.1853 72.7502 58.2171 73.7819C59.249 74.8135 60.0299 76.0684 60.4998 77.4498C60.9696 76.0685 61.7504 74.8137 62.7821 73.7821C63.8137 72.7504 65.0686 71.9696 66.4498 71.4998C65.0686 71.03 63.8137 70.2492 62.7821 69.2175C61.7504 68.1859 60.9696 66.9311 60.4998 65.5498C60.03 66.9311 59.2492 68.1859 58.2176 69.2175C57.1859 70.2492 55.9301 71.03 54.5488 71.4998Z" stroke="#4199FF" stroke-width="2"/>
<path opacity="0.6" d="M116 45C118.209 45 120 43.2091 120 41C120 38.7909 118.209 37 116 37C113.791 37 112 38.7909 112 41C112 43.2091 113.791 45 116 45Z" fill="#4199FF"/>
<path opacity="0.2" fill-rule="evenodd" clip-rule="evenodd" d="M260 18.4925C260 18.3995 260.002 18.3065 260.004 18.2135C262.159 18.143 264.206 17.2556 265.731 15.7311C267.256 14.2067 268.143 12.1593 268.214 10.0045C268.399 9.99851 268.585 9.99851 268.77 10.0045C268.84 12.1595 269.728 14.2071 271.253 15.7318C272.777 17.2564 274.825 18.144 276.98 18.2145C276.986 18.3998 276.986 18.5852 276.98 18.7705C274.825 18.8409 272.777 19.7285 271.253 21.2532C269.728 22.7779 268.84 24.8254 268.77 26.9805C268.584 26.9864 268.399 26.9864 268.213 26.9805C268.143 24.8256 267.255 22.7782 265.731 21.2535C264.206 19.7289 262.159 18.8412 260.004 18.7705C260.001 18.6778 260 18.5852 260 18.4925Z" fill="#4199FF"/>
<path opacity="0.2" fill-rule="evenodd" clip-rule="evenodd" d="M101.015 241.025L95.625 239.351L100.233 236.092L100.161 230.448L104.685 233.823L110.03 232.011L108.218 237.356L111.594 241.88L105.95 241.808L102.69 246.416L101.015 241.025Z" fill="#4199FF"/>
</g>
</g>
<defs>
<clipPath id="clip0_66_448">
<rect width="375" height="260" fill="white"/>
</clipPath>
</defs>
</svg>
