<svg width="375" height="356" viewBox="0 0 375 356" fill="none" xmlns="http://www.w3.org/2000/svg">
<g clip-path="url(#clip0_45_511)">
<mask id="mask0_45_511" style="mask-type:alpha" maskUnits="userSpaceOnUse" x="0" y="-1" width="375" height="667">
<path d="M0 -1H375V666H0V-1Z" fill="white"/>
</mask>
<g mask="url(#mask0_45_511)">
<path fill-rule="evenodd" clip-rule="evenodd" d="M188 670C361.97 670 503 528.97 503 355C503 275.802 473.773 203.431 425.516 148.084C367.769 81.853 282.772 0 188 0C91.453 0 5.052 83.435 -52.73 151.83C-99.069 206.678 -127 277.577 -127 355C-127 528.97 14.03 670 188 670Z" fill="#4199FF" fill-opacity="0.05"/>
<path fill-rule="evenodd" clip-rule="evenodd" d="M188 637C332.699 637 450 519.699 450 375C450 230.301 332.699 103 188 103C43.301 103 -74 230.301 -74 375C-74 519.699 43.301 637 188 637Z" fill="#4199FF" fill-opacity="0.1"/>
<path opacity="0.1" fill-rule="evenodd" clip-rule="evenodd" d="M186.792 609.82C280.923 609.82 750.615 429.933 581.969 422.468C513.376 419.432 448.555 412.421 389.499 366.161C328.073 318.043 305.53 177 186.792 177C68.054 177 35.502 305.764 -26.153 366.16C-76.318 415.302 -174.601 422.468 -226.813 422.468C-331.852 422.468 105.597 609.819 186.792 609.819V609.82Z" fill="#4199FF"/>
</g>
</g>
<defs>
<clipPath id="clip0_45_511">
<rect width="375" height="356" fill="white"/>
</clipPath>
</defs>
</svg>
