<svg width="375" height="405" viewBox="0 0 375 405" fill="none" xmlns="http://www.w3.org/2000/svg">
<g clip-path="url(#clip0_46_525)">
<path fill-rule="evenodd" clip-rule="evenodd" d="M237.315 77.504C298.424 81.7099 276.772 150.052 302.27 154.577C327.768 159.102 353.728 190.265 369.75 191.368C413.061 194.349 469.391 107.596 513.704 117.727C558.017 127.857 552.196 212.427 604.17 216.004C656.143 219.581 648.591 183.657 691.768 195.733C734.945 207.809 764.858 298.884 836.688 303.827C884.575 307.123 862.685 396.993 772.406 553.302C458.832 576.903 266.402 586.25 195.118 581.343C86.638 573.877 -1.8169 500.784 -34.8289 403.092L-401.026 475.573C-469.039 308.37 -479.102 226.416 -431.215 229.712C-359.385 234.656 -316.584 138.47 -272.16 132.423C-227.736 126.377 -231.782 170.607 -179.809 174.184C-127.836 177.761 -109.447 83.9411 -67.9198 77.6953C-26.393 71.4495 -19.6742 110.353 24.0567 110.326C67.7876 110.299 96.329 83.4304 110.81 77.5831C159.824 57.7913 178.019 73.4228 237.315 77.504Z" fill="#4199FF" fill-opacity="0.1"/>
<path fill-rule="evenodd" clip-rule="evenodd" d="M-14.2708 19.0321C44.3948 40.3067 111.35 134.46 149.213 176.852C158.638 184.788 178.611 126.821 194.429 129.593C237.191 137.087 240.087 107.138 283.109 121.784C326.13 136.431 312.646 182.322 363.612 215.975C414.578 249.628 410.45 200.955 452.141 217.398C493.832 233.842 514.196 326.752 585.115 339.181C632.394 347.467 601.369 433.739 495.492 578.3C181.239 568.573 -11.0773 557.543 -81.4567 545.208C-188.561 526.438 -268.992 445.093 -291.755 345.336L-663.372 378.25C-713.779 206.301 -715.343 124.469 -668.064 132.755C-597.145 145.184 -544.674 54.8859 -499.875 53.5998C-455.077 52.3137 -463.657 95.4806 -412.343 104.474C-361.029 113.466 -333.077 22.9325 -291.139 21.1451C-249.201 19.3578 -245.8 55.4873 -203.039 62.9814C-182.344 66.6082 -170.084 60.8176 -156.011 54.1102C-106.954 28.8474 -72.8155 8.77188 -14.2708 19.0321Z" fill="#4199FF" fill-opacity="0.1"/>
<path d="M315 0H123C104.775 0 90 14.7746 90 33V445C90 463.225 104.775 478 123 478H315C333.225 478 348 463.225 348 445V33C348 14.7746 333.225 0 315 0Z" fill="white"/>
<path opacity="0.3" d="M314 1H124C105.775 1 91 15.7746 91 34V444C91 462.225 105.775 477 124 477H314C332.225 477 347 462.225 347 444V34C347 15.7746 332.225 1 314 1Z" fill="#4199FF" fill-opacity="0.1" stroke="#4199FF" stroke-width="2"/>
<path opacity="0.3" fill-rule="evenodd" clip-rule="evenodd" d="M124 6C108.536 6 96 18.536 96 34V444C96 459.464 108.536 472 124 472H314C329.464 472 342 459.464 342 444V34C342 18.536 329.464 6 314 6H124Z" fill="#4199FF" fill-opacity="0.1" stroke="#4199FF" stroke-width="4"/>
<path d="M358.222 244.558C351.268 203.408 322.062 196.832 308.339 196.058C304.017 195.815 300.006 193.639 297.635 190.043C287.693 174.968 274.369 170.982 263.052 170.982C254.924 170.982 247.832 173.038 243.772 174.522C243.277 174.704 242.754 174.798 242.227 174.798C240.622 174.798 239.089 173.936 238.237 172.485C228.139 155.28 213.783 150.841 201.66 150.841C194.604 150.841 188.307 152.344 184.042 153.707C183.598 153.849 182.632 153.917 182.195 153.917C179.878 153.917 177.33 152.029 177.33 149.562V51.337C177.33 31.112 162.155 21 146.884 21C131.613 21 116.438 31.112 116.438 51.337V216.716C116.438 225.86 109.406 231.514 101.828 231.514C97.2239 231.514 92.7879 229.428 89.7379 224.774L75.0929 202.264C68.6199 191.656 59.2679 187.257 49.9519 187.255C28.8939 187.253 8.2979 209.722 22.9309 233.706L126 451.335C126.753 452.768 140.5 455.596 142.129 455.596C153.283 479.2 178.93 491 219.072 491C259.214 491 287.542 479.199 304.058 455.596C306.37 455.596 308.282 453.626 308.422 451.335L312.474 385.691C312.52 384.934 312.773 384.151 313.194 383.517C353.39 323.045 364.898 284.07 358.222 244.558Z" fill="#C1DEFF"/>
<g opacity="0.7">
<g opacity="0.7">
<path opacity="0.7" d="M169.5 51C169.5 38.5736 159.426 28.5 147 28.5C134.574 28.5 124.5 38.5736 124.5 51V95C124.5 107.426 134.574 117.5 147 117.5C159.426 117.5 169.5 107.426 169.5 95V51Z" stroke="#4199FF" stroke-opacity="0.3"/>
<path opacity="0.7" d="M166 51C166 40.5066 157.493 32 147 32C136.507 32 128 40.5066 128 51V95C128 105.493 136.507 114 147 114C157.493 114 166 105.493 166 95V51Z" fill="#4199FF" fill-opacity="0.1" stroke="#4199FF" stroke-opacity="0.5" stroke-width="2"/>
<path opacity="0.7" d="M147 60C151.971 60 156 55.9706 156 51C156 46.0294 151.971 42 147 42C142.029 42 138 46.0294 138 51C138 55.9706 142.029 60 147 60Z" fill="#4199FF" fill-opacity="0.3" stroke="#4199FF" stroke-width="4"/>
<path opacity="0.7" d="M147 104C151.971 104 156 99.9706 156 95C156 90.0294 151.971 86 147 86C142.029 86 138 90.0294 138 95C138 99.9706 142.029 104 147 104Z" fill="#4199FF" fill-opacity="0.3" stroke="#4199FF" stroke-width="4"/>
<path opacity="0.3" d="M147 79C150.314 79 153 76.3137 153 73C153 69.6863 150.314 67 147 67C143.686 67 141 69.6863 141 73C141 76.3137 143.686 79 147 79Z" fill="white"/>
</g>
</g>
</g>
<defs>
<clipPath id="clip0_46_525">
<rect width="375" height="405" fill="white"/>
</clipPath>
</defs>
</svg>
