<svg width="57" height="50" viewBox="0 0 57 50" fill="none" xmlns="http://www.w3.org/2000/svg">
<path d="M17.3461 42.1377C8.39097 35.5315 0.900635 26.8621 0.900635 18.0557C0.900635 8.15895 7.77458 0.134766 16.2514 0.134766C23.032 0.134766 28.53 7.0632 28.53 10.983C28.53 7.12679 34.0285 0.134766 40.8086 0.134766C45.7645 0.134766 50.1679 2.87295 52.9738 7.12711C54.9759 10.1537 56.1594 13.9433 56.1594 18.0557C56.1594 30.4267 41.3707 42.5239 28.53 49.0323C24.8266 47.1597 20.9656 44.8173 17.3461 42.1377Z" fill="#F16B81"/>
<path d="M21.659 42.138C16.1576 35.5318 11.5556 26.8624 11.5556 18.056C11.5556 9.41967 14.7721 2.21082 19.0514 0.514155C18.1519 0.268814 17.2152 0.134766 16.2512 0.134766C7.77456 0.134766 0.900391 8.15895 0.900391 18.0557C0.900391 26.8621 8.39073 35.5318 17.3458 42.1377C20.9654 44.8171 24.8266 47.1595 28.5298 49.0323C26.2548 47.1599 23.8826 44.8176 21.659 42.138Z" fill="#EA5F75"/>
</svg>
