<svg width="44" height="44" viewBox="0 0 44 44" fill="none" xmlns="http://www.w3.org/2000/svg">
<path d="M14.5 1C13.7044 1 12.9413 1.31607 12.3787 1.87868C11.8161 2.44129 11.5 3.20435 11.5 4V40C11.5 40.7957 11.8161 41.5587 12.3787 42.1213C12.9413 42.6839 13.7044 43 14.5 43H29.5C30.2956 43 31.0587 42.6839 31.6213 42.1213C32.1839 41.5587 32.5 40.7957 32.5 40V4C32.5 3.20435 32.1839 2.44129 31.6213 1.87868C31.0587 1.31607 30.2956 1 29.5 1H14.5ZM14.5 0H29.5C30.5609 0 31.5783 0.421427 32.3284 1.17157C33.0786 1.92172 33.5 2.93913 33.5 4V40C33.5 41.0609 33.0786 42.0783 32.3284 42.8284C31.5783 43.5786 30.5609 44 29.5 44H14.5C13.4391 44 12.4217 43.5786 11.6716 42.8284C10.9214 42.0783 10.5 41.0609 10.5 40V4C10.5 2.93913 10.9214 1.92172 11.6716 1.17157C12.4217 0.421427 13.4391 0 14.5 0V0Z" fill="white"/>
<path d="M16.25 4C15.214 4 14.375 4.84 14.375 5.875V11.125C14.375 11.6223 14.5725 12.0992 14.9242 12.4508C15.2758 12.8025 15.7527 13 16.25 13C16.7473 13 17.2242 12.8025 17.5758 12.4508C17.9275 12.0992 18.125 11.6223 18.125 11.125V5.875C18.125 4.839 17.285 4 16.25 4ZM16.25 3C17.0125 3 17.7438 3.3029 18.2829 3.84207C18.8221 4.38124 19.125 5.1125 19.125 5.875V11.125C19.125 11.8875 18.8221 12.6188 18.2829 13.1579C17.7438 13.6971 17.0125 14 16.25 14C15.4875 14 14.7562 13.6971 14.2171 13.1579C13.6779 12.6188 13.375 11.8875 13.375 11.125V5.875C13.375 5.1125 13.6779 4.38124 14.2171 3.84207C14.7562 3.3029 15.4875 3 16.25 3Z" fill="white"/>
<path d="M16.25 7C16.8023 7 17.25 6.55228 17.25 6C17.25 5.44772 16.8023 5 16.25 5C15.6977 5 15.25 5.44772 15.25 6C15.25 6.55228 15.6977 7 16.25 7Z" fill="white"/>
<path d="M16.25 12C16.8023 12 17.25 11.5523 17.25 11C17.25 10.4477 16.8023 10 16.25 10C15.6977 10 15.25 10.4477 15.25 11C15.25 11.5523 15.6977 12 16.25 12Z" fill="white"/>
<path opacity="0.5" d="M16.25 9.5C16.8023 9.5 17.25 9.05228 17.25 8.5C17.25 7.94772 16.8023 7.5 16.25 7.5C15.6977 7.5 15.25 7.94772 15.25 8.5C15.25 9.05228 15.6977 9.5 16.25 9.5Z" fill="white"/>
</svg>
