<svg width="123" height="144" viewBox="0 0 123 144" fill="none" xmlns="http://www.w3.org/2000/svg">
<path opacity="0.5" d="M44.1411 71.9996V79.5667C45.4751 93.8556 53.2841 101 67.5711 101C81.8571 101 89.6671 93.8556 91.0001 79.5667V56.8896M14.1411 71.9996V87.9996C14.1411 110.091 32.0501 128 54.1411 128H80.0001L14.1411 71.9996Z" stroke="#4199FF" stroke-width="4"/>
<path d="M82 119H71.866C70.283 119 69 120.253 69 121.798V132.202C69 133.747 70.283 135 71.866 135H82V119Z" fill="white"/>
<path d="M91 72C102.046 72 111 63.0457 111 52C111 40.9543 102.046 32 91 32C79.9543 32 71 40.9543 71 52C71 63.0457 79.9543 72 91 72Z" fill="white" stroke="#85BEFF" stroke-width="4"/>
<path opacity="0.3" d="M91 67C99.2843 67 106 60.2843 106 52C106 43.7157 99.2843 37 91 37C82.7157 37 76 43.7157 76 52C76 60.2843 82.7157 67 91 67Z" stroke="#4199FF" stroke-width="2"/>
<path d="M83.786 57.9998C83.056 57.9998 82.369 57.5218 82.106 56.7518C81.772 55.7718 82.252 54.6888 83.179 54.3338L91.608 51.1128C92.535 50.7588 93.5579 51.2658 93.8929 52.2478C94.2279 53.2278 93.7479 54.3108 92.8209 54.6658L84.3919 57.8868C84.1919 57.9628 83.987 57.9998 83.786 57.9998Z" fill="#F16B81"/>
<path d="M46 0H10C4.47715 0 0 4.47715 0 10V64C0 69.5229 4.47715 74 10 74H46C51.5228 74 56 69.5229 56 64V10C56 4.47715 51.5228 0 46 0Z" fill="#4199FF"/>
<path opacity="0.4" d="M32 0H10C4.47715 0 0 4.47715 0 10V64C0 69.5229 4.47715 74 10 74H32C37.5228 74 42 69.5229 42 64V10C42 4.47715 37.5228 0 32 0Z" fill="white"/>
<path d="M100.5 144C112.926 144 123 136.389 123 127C123 117.611 112.926 110 100.5 110C88.0736 110 78 117.611 78 127C78 136.389 88.0736 144 100.5 144Z" fill="#4199FF"/>
</svg>
