<svg width="36" height="36" viewBox="0 0 36 36" fill="none" xmlns="http://www.w3.org/2000/svg">
<rect x="0.85" y="0.85" width="34.3" height="34.3" rx="17.15" fill="white" stroke="#4199FF" stroke-width="1.7"/>
<path fill-rule="evenodd" clip-rule="evenodd" d="M26 12.6015C26.0009 11.7179 25.3069 11.0009 24.4499 11C23.5929 10.9991 22.8974 11.7147 22.8966 12.5982C22.8958 13.3795 23.4425 14.0471 24.1897 14.1773V21.4005C24.187 22.9546 23.1825 24.3174 21.7309 24.7362C21.9867 24.1955 22.12 23.6019 22.1207 23.0004V18.4113C22.5769 18.214 22.8966 17.5026 22.8966 16.6011C22.8966 15.5369 22.4517 14.7346 21.8621 14.7346C21.2724 14.7346 20.8276 15.5369 20.8276 16.6011C20.8276 17.5026 21.1472 18.214 21.6034 18.4113V23.0004C21.6033 23.6573 21.4209 24.3004 21.0777 24.8538L21.0676 24.8546C20.9879 24.8607 20.9085 24.8669 20.8276 24.8669H20.3103C18.4544 24.8647 16.9504 23.314 16.9483 21.4006V20.0674H18.5C19.2138 20.0665 19.7923 19.4701 19.7931 18.7342V12.3348C19.7923 11.5989 19.2138 11.0025 18.5 11.0016H12.2931C11.5793 11.0025 11.0008 11.5989 11 12.3348V18.7342C11.0008 19.4701 11.5793 20.0665 12.2931 20.0674H13.8448V23.0004C13.8473 25.2083 15.5827 26.9975 17.7241 27H18.2414C19.4788 26.9989 20.6412 26.3881 21.3691 25.3564C23.2812 25.0774 24.7036 23.3916 24.7069 21.4006V14.1773C25.4526 14.0467 25.9986 13.3813 26 12.6015ZM11.5172 18.7342V17.6676H19.2759V18.7342C19.2759 19.176 18.9285 19.5341 18.5 19.5341H12.2931C11.8646 19.5341 11.5172 19.1759 11.5172 18.7342ZM17.7241 26.4667H18.2414C19.1555 26.4665 20.0299 26.0812 20.6618 25.4002H20.3103C18.1689 25.3977 16.4335 23.6084 16.431 21.4006V20.0674H14.3621V23.0004C14.3642 24.9139 15.8682 26.4645 17.7241 26.4667Z" fill="#4199FF"/>
<path d="M24.4499 11L24.45 10.85L24.4499 11ZM26 12.6015L26.15 12.6017V12.6016L26 12.6015ZM22.8966 12.5982L23.0466 12.5984V12.5984L22.8966 12.5982ZM24.1897 14.1773H24.3397V14.0512L24.2154 14.0295L24.1897 14.1773ZM24.1897 21.4005L24.3397 21.4008V21.4005H24.1897ZM21.7309 24.7362L21.5954 24.6721L21.4533 24.9724L21.7725 24.8803L21.7309 24.7362ZM22.1207 23.0004L22.2707 23.0006V23.0004H22.1207ZM22.1207 18.4113L22.0611 18.2736L21.9707 18.3127V18.4113H22.1207ZM21.6034 18.4113H21.7534V18.3127L21.663 18.2736L21.6034 18.4113ZM21.6034 23.0004L21.7534 23.0004V23.0004H21.6034ZM21.0777 24.8538L21.0892 25.0034L21.1651 24.9975L21.2052 24.9329L21.0777 24.8538ZM21.0676 24.8546L21.056 24.705H21.056L21.0676 24.8546ZM20.3103 24.8669L20.3102 25.0169H20.3103V24.8669ZM16.9483 21.4006H16.7983V21.4007L16.9483 21.4006ZM16.9483 20.0674V19.9174H16.7983V20.0674H16.9483ZM18.5 20.0674V20.2174H18.5002L18.5 20.0674ZM19.7931 18.7342L19.9431 18.7343V18.7342H19.7931ZM19.7931 12.3348H19.9431L19.9431 12.3347L19.7931 12.3348ZM18.5 11.0016L18.5002 10.8516H18.5V11.0016ZM12.2931 11.0016V10.8516L12.2929 10.8516L12.2931 11.0016ZM11 12.3348L10.85 12.3347V12.3348H11ZM11 18.7342H10.85L10.85 18.7343L11 18.7342ZM12.2931 20.0674L12.2929 20.2174H12.2931V20.0674ZM13.8448 20.0674H13.9948V19.9174H13.8448V20.0674ZM13.8448 23.0004H13.6948L13.6948 23.0006L13.8448 23.0004ZM17.7241 27L17.724 27.15H17.7241V27ZM18.2414 27V27.15H18.2415L18.2414 27ZM21.3691 25.3564L21.3475 25.208L21.2837 25.2173L21.2466 25.27L21.3691 25.3564ZM24.7069 21.4006L24.8569 21.4008V21.4006H24.7069ZM24.7069 14.1773L24.681 14.0296L24.5569 14.0513V14.1773H24.7069ZM11.5172 17.6676V17.5176H11.3672V17.6676H11.5172ZM19.2759 17.6676H19.4259V17.5176H19.2759V17.6676ZM18.2414 26.4667V26.6167H18.2414L18.2414 26.4667ZM17.7241 26.4667L17.724 26.6167H17.7241V26.4667ZM20.6618 25.4002L20.7718 25.5022L21.0056 25.2502H20.6618V25.4002ZM20.3103 25.4002L20.3102 25.5502H20.3103V25.4002ZM16.431 21.4006H16.281V21.4007L16.431 21.4006ZM16.431 20.0674H16.581V19.9174H16.431V20.0674ZM14.3621 20.0674V19.9174H14.2121V20.0674H14.3621ZM14.3621 23.0004H14.2121L14.2121 23.0006L14.3621 23.0004ZM24.4497 11.15C25.2196 11.1508 25.8508 11.7962 25.85 12.6013L26.15 12.6016C26.1509 11.6396 25.3941 10.851 24.45 10.85L24.4497 11.15ZM23.0466 12.5984C23.0473 11.7933 23.6798 11.1492 24.4497 11.15L24.45 10.85C23.5059 10.849 22.7475 11.636 22.7466 12.5981L23.0466 12.5984ZM24.2154 14.0295C23.5433 13.9124 23.0458 13.31 23.0466 12.5984L22.7466 12.5981C22.7457 13.449 23.3416 14.1817 24.1639 14.325L24.2154 14.0295ZM24.3397 21.4005V14.1773H24.0397V21.4005H24.3397ZM21.7725 24.8803C23.2908 24.4423 24.3369 23.0189 24.3397 21.4008L24.0397 21.4003C24.0371 22.8903 23.0743 24.1925 21.6894 24.5921L21.7725 24.8803ZM21.9707 23.0002C21.97 23.5798 21.8416 24.1515 21.5954 24.6721L21.8665 24.8003C22.1318 24.2395 22.27 23.6241 22.2707 23.0006L21.9707 23.0002ZM21.9707 18.4113V23.0004H22.2707V18.4113H21.9707ZM22.7466 16.6011C22.7466 17.0352 22.6694 17.4174 22.5421 17.7105C22.4137 18.0062 22.2414 18.1956 22.0611 18.2736L22.1802 18.549C22.4562 18.4296 22.6719 18.1647 22.8173 17.83C22.9638 17.4927 23.0466 17.0685 23.0466 16.6011H22.7466ZM21.8621 14.8846C22.0806 14.8846 22.2982 15.0329 22.4692 15.3415C22.639 15.6477 22.7466 16.0878 22.7466 16.6011H23.0466C23.0466 16.0502 22.9317 15.5571 22.7316 15.196C22.5328 14.8374 22.2332 14.5846 21.8621 14.5846V14.8846ZM20.9776 16.6011C20.9776 16.0878 21.0852 15.6477 21.2549 15.3415C21.4259 15.0329 21.6435 14.8846 21.8621 14.8846V14.5846C21.491 14.5846 21.1913 14.8374 20.9925 15.196C20.7924 15.5571 20.6776 16.0502 20.6776 16.6011H20.9776ZM21.663 18.2736C21.4827 18.1956 21.3105 18.0062 21.182 17.7105C21.0547 17.4174 20.9776 17.0352 20.9776 16.6011H20.6776C20.6776 17.0685 20.7603 17.4927 20.9069 17.83C21.0523 18.1647 21.268 18.4296 21.5439 18.549L21.663 18.2736ZM21.7534 23.0004V18.4113H21.4534V23.0004H21.7534ZM21.2052 24.9329C21.5632 24.3555 21.7533 23.685 21.7534 23.0004L21.4534 23.0004C21.4533 23.6296 21.2785 24.2453 20.9502 24.7748L21.2052 24.9329ZM21.0791 25.0042L21.0892 25.0034L21.0661 24.7043L21.056 24.705L21.0791 25.0042ZM20.8276 25.0169C20.9152 25.0169 21.0004 25.0102 21.0791 25.0042L21.056 24.705C20.9755 24.7113 20.9017 24.7169 20.8276 24.7169V25.0169ZM20.3103 25.0169H20.8276V24.7169H20.3103V25.0169ZM16.7983 21.4007C16.8005 23.3926 18.3673 25.0146 20.3102 25.0169L20.3105 24.7169C18.5416 24.7148 17.1003 23.2355 17.0983 21.4004L16.7983 21.4007ZM16.7983 20.0674V21.4006H17.0983V20.0674H16.7983ZM18.5 19.9174H16.9483V20.2174H18.5V19.9174ZM19.6431 18.734C19.6424 19.3916 19.1266 19.9166 18.4998 19.9174L18.5002 20.2174C19.3009 20.2164 19.9422 19.5486 19.9431 18.7343L19.6431 18.734ZM19.6431 12.3348V18.7342H19.9431V12.3348H19.6431ZM18.4998 11.1516C19.1266 11.1524 19.6424 11.6774 19.6431 12.335L19.9431 12.3347C19.9422 11.5204 19.3009 10.8526 18.5002 10.8516L18.4998 11.1516ZM12.2931 11.1516H18.5V10.8516H12.2931V11.1516ZM11.15 12.335C11.1508 11.6774 11.6665 11.1524 12.2933 11.1516L12.2929 10.8516C11.4922 10.8526 10.8509 11.5204 10.85 12.3347L11.15 12.335ZM11.15 18.7342V12.3348H10.85V18.7342H11.15ZM12.2933 19.9174C11.6665 19.9166 11.1508 19.3916 11.15 18.734L10.85 18.7343C10.8509 19.5486 11.4922 20.2164 12.2929 20.2174L12.2933 19.9174ZM13.8448 19.9174H12.2931V20.2174H13.8448V19.9174ZM13.9948 23.0004V20.0674H13.6948V23.0004H13.9948ZM17.7243 26.85C15.6698 26.8476 13.9972 25.1297 13.9948 23.0002L13.6948 23.0006C13.6973 25.2868 15.4955 27.1474 17.724 27.15L17.7243 26.85ZM18.2414 26.85H17.7241V27.15H18.2414V26.85ZM21.2466 25.27C20.546 26.2628 19.4288 26.8489 18.2412 26.85L18.2415 27.15C19.5288 27.1489 20.7363 26.5134 21.4917 25.4429L21.2466 25.27ZM24.5569 21.4003C24.5537 23.3204 23.1826 24.9402 21.3475 25.208L21.3908 25.5049C23.3798 25.2146 24.8534 23.4628 24.8569 21.4008L24.5569 21.4003ZM24.5569 14.1773V21.4006H24.8569V14.1773H24.5569ZM25.85 12.6012C25.8487 13.3115 25.3519 13.912 24.681 14.0296L24.7328 14.3251C25.5533 14.1813 26.1485 13.451 26.15 12.6017L25.85 12.6012ZM11.3672 17.6676V18.7342H11.6672V17.6676H11.3672ZM19.2759 17.5176H11.5172V17.8176H19.2759V17.5176ZM19.4259 18.7342V17.6676H19.1259V18.7342H19.4259ZM18.5 19.6841C19.0156 19.6841 19.4259 19.2545 19.4259 18.7342H19.1259C19.1259 19.0975 18.8414 19.3841 18.5 19.3841V19.6841ZM12.2931 19.6841H18.5V19.3841H12.2931V19.6841ZM11.3672 18.7342C11.3672 19.2544 11.7775 19.6841 12.2931 19.6841V19.3841C11.9517 19.3841 11.6672 19.0974 11.6672 18.7342H11.3672ZM18.2414 26.3167H17.7241V26.6167H18.2414V26.3167ZM20.5518 25.2981C19.9478 25.9492 19.113 26.3165 18.2413 26.3167L18.2414 26.6167C19.1981 26.6165 20.112 26.2133 20.7718 25.5022L20.5518 25.2981ZM20.3103 25.5502H20.6618V25.2502H20.3103V25.5502ZM16.281 21.4007C16.2835 23.687 18.0817 25.5476 20.3102 25.5502L20.3105 25.2502C18.256 25.2478 16.5834 23.5299 16.581 21.4004L16.281 21.4007ZM16.281 20.0674V21.4006H16.581V20.0674H16.281ZM14.3621 20.2174H16.431V19.9174H14.3621V20.2174ZM14.5121 23.0004V20.0674H14.2121V23.0004H14.5121ZM17.7243 26.3167C15.9554 26.3146 14.5141 24.8353 14.5121 23.0002L14.2121 23.0006C14.2143 24.9924 15.7811 26.6144 17.724 26.6167L17.7243 26.3167Z" fill="#4199FF"/>
</svg>
