<svg width="32" height="32" viewBox="0 0 32 32" fill="none" xmlns="http://www.w3.org/2000/svg">
<path d="M8 16V22H10V16H8ZM7 14H11C11.2652 14 11.5196 14.1054 11.7071 14.2929C11.8946 14.4804 12 14.7348 12 15V23C12 23.2652 11.8946 23.5196 11.7071 23.7071C11.5196 23.8946 11.2652 24 11 24H7C6.73478 24 6.48043 23.8946 6.29289 23.7071C6.10536 23.5196 6 23.2652 6 23V15C6 14.7348 6.10536 14.4804 6.29289 14.2929C6.48043 14.1054 6.73478 14 7 14ZM15 6V22H17V6H15ZM14 4H18C18.2652 4 18.5196 4.10536 18.7071 4.29289C18.8946 4.48043 19 4.73478 19 5V23C19 23.2652 18.8946 23.5196 18.7071 23.7071C18.5196 23.8946 18.2652 24 18 24H14C13.7348 24 13.4804 23.8946 13.2929 23.7071C13.1054 23.5196 13 23.2652 13 23V5C13 4.73478 13.1054 4.48043 13.2929 4.29289C13.4804 4.10536 13.7348 4 14 4ZM22 12V22H24V12H22ZM21 10H25C25.2652 10 25.5196 10.1054 25.7071 10.2929C25.8946 10.4804 26 10.7348 26 11V23C26 23.2652 25.8946 23.5196 25.7071 23.7071C25.5196 23.8946 25.2652 24 25 24H21C20.7348 24 20.4804 23.8946 20.2929 23.7071C20.1054 23.5196 20 23.2652 20 23V11C20 10.7348 20.1054 10.4804 20.2929 10.2929C20.4804 10.1054 20.7348 10 21 10ZM7 26H11C11.2652 26 11.5196 26.1054 11.7071 26.2929C11.8946 26.4804 12 26.7348 12 27C12 27.2652 11.8946 27.5196 11.7071 27.7071C11.5196 27.8946 11.2652 28 11 28H7C6.73478 28 6.48043 27.8946 6.29289 27.7071C6.10536 27.5196 6 27.2652 6 27C6 26.7348 6.10536 26.4804 6.29289 26.2929C6.48043 26.1054 6.73478 26 7 26ZM15 26H25C25.2652 26 25.5196 26.1054 25.7071 26.2929C25.8946 26.4804 26 26.7348 26 27C26 27.2652 25.8946 27.5196 25.7071 27.7071C25.5196 27.8946 25.2652 28 25 28H15C14.7348 28 14.4804 27.8946 14.2929 27.7071C14.1054 27.5196 14 27.2652 14 27C14 26.7348 14.1054 26.4804 14.2929 26.2929C14.4804 26.1054 14.7348 26 15 26Z" fill="#A2A2A2"/>
</svg>
