<svg width="170" height="170" viewBox="0 0 170 170" fill="none" xmlns="http://www.w3.org/2000/svg">
<path fill-rule="evenodd" clip-rule="evenodd" d="M39.7158 80.4658L44.8912 90.6173C45.1172 91.0605 44.9798 91.625 44.5844 91.8782C44.4598 91.958 44.3188 92 44.1753 92H33.8245C33.3692 92 33 91.5862 33 91.0758C33 90.915 33.0374 90.757 33.1086 90.6173L38.284 80.4658C38.51 80.0227 39.0136 79.8687 39.409 80.1219C39.5368 80.2038 39.6428 80.3225 39.7158 80.4658Z" fill="#4199FF"/>
<path d="M37 90C37 88.9379 37.861 88.0769 38.9231 88.0769C39.9852 88.0769 40.8462 88.9379 40.8462 90C40.8462 115.49 61.5099 136.154 87 136.154C112.49 136.154 133.154 115.49 133.154 90C133.154 64.5099 112.49 43.8462 87 43.8462C85.9379 43.8462 85.0769 42.9852 85.0769 41.9231C85.0769 40.861 85.9379 40 87 40C114.614 40 137 62.3858 137 90C137 117.614 114.614 140 87 140C59.3858 140 37 117.614 37 90Z" fill="#4199FF"/>
</svg>
