<svg width="375" height="347" viewBox="0 0 375 347" fill="none" xmlns="http://www.w3.org/2000/svg">
<mask id="mask0_80_1" style="mask-type:luminance" maskUnits="userSpaceOnUse" x="0" y="58" width="375" height="400">
<rect width="375" height="400" transform="matrix(1 0 0 -1 0 458)" fill="white"/>
</mask>
<g mask="url(#mask0_80_1)">
<path fill-rule="evenodd" clip-rule="evenodd" d="M-30.0001 360C-30.0001 360 -8.88962 247.204 36.0552 247.204C80.9999 247.204 69.7498 304 113 304C156.25 304 154.627 172.698 207.952 160.849C261.277 149 271.308 224 313 224C354.691 224 348 164.094 410.845 164.094C473.69 164.094 472.998 222.848 512.959 217.232C552.919 211.616 568.285 423.834 568.285 423.834L21.3206 525.848L-30.0001 360Z" fill="#4199FF" fill-opacity="0.05"/>
<path fill-rule="evenodd" clip-rule="evenodd" d="M-46.9999 347C25.0001 347 61.0958 249 105 240C148.904 231 148.904 282 201 282C253.096 282 241 169.188 301 156.094C361 143 353.587 222 397 222C440.414 222 424.413 164.609 484.999 156.094C545.585 147.579 547.152 214.848 587.113 209.232C627.074 203.616 642.44 415.834 642.44 415.834L53.0002 537C53.0002 537 -119 347 -46.9999 347Z" fill="#4199FF" fill-opacity="0.1"/>
</g>
</svg>
